<mxfile host="app.diagrams.net" agent="Mozilla/5.0 (Windows NT 10.0; Win64; x64) AppleWebKit/537.36 (KHTML, like Gecko) Chrome/139.0.0.0 Safari/537.36" version="28.1.2">
  <diagram name="Page-1" id="4cMaAy9dqVSBqnymYNzS">
    <mxGraphModel dx="872" dy="465" grid="1" gridSize="10" guides="1" tooltips="1" connect="1" arrows="1" fold="1" page="1" pageScale="1" pageWidth="850" pageHeight="1100" math="0" shadow="0">
      <root>
        <mxCell id="0" />
        <mxCell id="1" parent="0" />
        <mxCell id="FNAPjoRVaA9wit0JzatB-4" style="edgeStyle=orthogonalEdgeStyle;rounded=0;orthogonalLoop=1;jettySize=auto;html=1;entryX=0.5;entryY=0;entryDx=0;entryDy=0;flowAnimation=1;" edge="1" parent="1" source="FNAPjoRVaA9wit0JzatB-1" target="FNAPjoRVaA9wit0JzatB-2">
          <mxGeometry relative="1" as="geometry" />
        </mxCell>
        <mxCell id="FNAPjoRVaA9wit0JzatB-8" style="edgeStyle=orthogonalEdgeStyle;rounded=0;orthogonalLoop=1;jettySize=auto;html=1;entryX=0.5;entryY=0;entryDx=0;entryDy=0;flowAnimation=1;" edge="1" parent="1" source="FNAPjoRVaA9wit0JzatB-1" target="FNAPjoRVaA9wit0JzatB-3">
          <mxGeometry relative="1" as="geometry" />
        </mxCell>
        <mxCell id="FNAPjoRVaA9wit0JzatB-1" value="&lt;b&gt;Esc Mode&lt;/b&gt;" style="rounded=1;whiteSpace=wrap;html=1;fillColor=#dae8fc;gradientColor=#7ea6e0;strokeColor=#6c8ebf;" vertex="1" parent="1">
          <mxGeometry x="320" y="120" width="160" height="80" as="geometry" />
        </mxCell>
        <mxCell id="FNAPjoRVaA9wit0JzatB-6" style="edgeStyle=orthogonalEdgeStyle;rounded=0;orthogonalLoop=1;jettySize=auto;html=1;entryX=0.25;entryY=1;entryDx=0;entryDy=0;flowAnimation=1;" edge="1" parent="1" source="FNAPjoRVaA9wit0JzatB-2" target="FNAPjoRVaA9wit0JzatB-1">
          <mxGeometry relative="1" as="geometry" />
        </mxCell>
        <mxCell id="FNAPjoRVaA9wit0JzatB-2" value="&lt;b&gt;Colon/Command Mode&lt;/b&gt;" style="rounded=1;whiteSpace=wrap;html=1;fillColor=#d5e8d4;gradientColor=#97d077;strokeColor=#82b366;" vertex="1" parent="1">
          <mxGeometry x="40" y="240" width="160" height="80" as="geometry" />
        </mxCell>
        <mxCell id="FNAPjoRVaA9wit0JzatB-10" style="edgeStyle=orthogonalEdgeStyle;rounded=0;orthogonalLoop=1;jettySize=auto;html=1;entryX=0.75;entryY=1;entryDx=0;entryDy=0;flowAnimation=1;" edge="1" parent="1" source="FNAPjoRVaA9wit0JzatB-3" target="FNAPjoRVaA9wit0JzatB-1">
          <mxGeometry relative="1" as="geometry" />
        </mxCell>
        <mxCell id="FNAPjoRVaA9wit0JzatB-3" value="&lt;b&gt;Insert Mode&lt;/b&gt;" style="rounded=1;whiteSpace=wrap;html=1;fillColor=#e6d0de;gradientColor=#d5739d;strokeColor=#996185;" vertex="1" parent="1">
          <mxGeometry x="560" y="240" width="160" height="80" as="geometry" />
        </mxCell>
        <mxCell id="FNAPjoRVaA9wit0JzatB-5" value="&lt;b&gt;&lt;font style=&quot;font-size: 18px;&quot;&gt;:&lt;/font&gt;&lt;/b&gt;" style="text;html=1;align=center;verticalAlign=middle;resizable=0;points=[];autosize=1;strokeColor=none;fillColor=none;" vertex="1" parent="1">
          <mxGeometry x="215" y="160" width="30" height="40" as="geometry" />
        </mxCell>
        <mxCell id="FNAPjoRVaA9wit0JzatB-7" value="&lt;b&gt;Esc&lt;/b&gt;" style="text;html=1;align=center;verticalAlign=middle;resizable=0;points=[];autosize=1;strokeColor=none;fillColor=none;" vertex="1" parent="1">
          <mxGeometry x="240" y="290" width="40" height="30" as="geometry" />
        </mxCell>
        <mxCell id="FNAPjoRVaA9wit0JzatB-9" value="&lt;b&gt;&lt;font style=&quot;font-size: 16px;&quot;&gt;i&lt;/font&gt;&lt;/b&gt;" style="text;html=1;align=center;verticalAlign=middle;resizable=0;points=[];autosize=1;strokeColor=none;fillColor=none;" vertex="1" parent="1">
          <mxGeometry x="560" y="130" width="30" height="30" as="geometry" />
        </mxCell>
        <mxCell id="FNAPjoRVaA9wit0JzatB-12" value="&lt;b&gt;Esc&lt;/b&gt;" style="text;html=1;align=center;verticalAlign=middle;resizable=0;points=[];autosize=1;strokeColor=none;fillColor=none;" vertex="1" parent="1">
          <mxGeometry x="480" y="280" width="40" height="30" as="geometry" />
        </mxCell>
      </root>
    </mxGraphModel>
  </diagram>
</mxfile>
